<?xml version="1.0" encoding="utf-8"?><svg version="1.1" id="Layer_1" xmlns="http://www.w3.org/2000/svg" xmlns:xlink="http://www.w3.org/1999/xlink" x="0px" y="0px" viewBox="0 0 122.88 69.4" style="enable-background:new 0 0 122.88 69.4" xml:space="preserve"><style type="text/css">.st0{fill-rule:evenodd;clip-rule:evenodd;}</style><g><path class="st0" d="M7.85,0h107.18c4.32,0,7.85,3.53,7.85,7.85v53.69c0,4.32-3.53,7.85-7.85,7.85H7.85C3.53,69.4,0,65.87,0,61.55 V7.85C0,3.53,3.53,0,7.85,0L7.85,0z M102.82,14.59l-7.9,25.12v14.25h-10V39.71l-7.63-25.12h9.94c1.54,7.71,2.42,12.88,2.64,15.54 c0.62-4.2,1.62-9.37,3.02-15.54H102.82L102.82,14.59z M20.06,14.59h10.77c3.4,0,5.98,0.25,7.74,0.75c1.75,0.5,3.17,1.52,4.25,3.04 c1.08,1.53,1.61,4,1.61,7.4c0,2.3-0.38,3.9-1.14,4.8c-0.76,0.91-2.27,1.6-4.52,2.09c2.51,0.54,4.21,1.43,5.11,2.66 c0.89,1.24,1.34,3.14,1.34,5.72v3.65c0,2.66-0.32,4.63-0.97,5.91c-0.64,1.28-1.66,2.16-3.06,2.63c-1.4,0.47-4.28,0.7-8.63,0.7 h-12.5V14.59L20.06,14.59z M30.9,36.19v11.05c1.49-0.05,2.45-0.27,2.86-0.68c0.41-0.41,0.61-1.41,0.61-3v-3.68 c0-1.69-0.18-2.71-0.55-3.08C33.45,36.44,32.48,36.24,30.9,36.19L30.9,36.19z M30.9,21.31v8.76c0.46-0.02,0.81-0.02,1.06-0.02 c1.04,0,1.7-0.25,1.98-0.74c0.29-0.5,0.43-1.92,0.43-4.25c0-1.24-0.11-2.1-0.35-2.6c-0.24-0.49-0.54-0.8-0.92-0.94 C32.73,21.4,31.99,21.33,30.9,21.31L30.9,21.31z M74.64,14.59v26.32c0,2.99-0.11,5.09-0.31,6.29c-0.21,1.21-0.82,2.46-1.83,3.72 c-1.01,1.28-2.34,2.24-3.99,2.9c-1.66,0.66-3.61,0.99-5.85,0.99c-2.48,0-4.68-0.39-6.57-1.17c-1.9-0.78-3.33-1.79-4.26-3.04 c-0.95-1.25-1.5-2.57-1.68-3.96c-0.17-1.39-0.25-4.31-0.25-8.74V14.59h10.84v29.53c0,1.72,0.1,2.82,0.29,3.29 c0.19,0.48,0.59,0.72,1.18,0.72c0.67,0,1.11-0.27,1.3-0.79c0.19-0.53,0.29-1.78,0.29-3.73V14.59H74.64L74.64,14.59z"/></g></svg>